<?xml version="1.0" standalone="no"?>
<!DOCTYPE svg PUBLIC "-//W3C//DTD SVG 20010904//EN"
 "http://www.w3.org/TR/2001/REC-SVG-20010904/DTD/svg10.dtd">
<svg version="1.0" xmlns="http://www.w3.org/2000/svg"
 width="850.000000pt" height="797.000000pt" viewBox="0 0 850.000000 797.000000"
 preserveAspectRatio="xMidYMid meet">

<g transform="translate(0.000000,797.000000) scale(0.100000,-0.100000)"
fill="#000000" stroke="none">
<path d="M4291 7863 c-149 -167 -146 -374 7 -532 l54 -56 -46 54 c-25 29 -61
83 -78 120 -29 58 -32 76 -32 151 0 75 3 93 32 151 17 37 53 90 78 118 25 28
44 51 41 51 -3 0 -28 -25 -56 -57z"/>
<path d="M5074 7870 c55 -65 89 -135 106 -213 21 -103 -18 -224 -107 -327 -30
-36 -35 -44 -14 -25 91 84 136 182 135 300 0 69 -5 89 -33 147 -17 37 -55 91
-82 120 l-51 53 46 -55z"/>
<path d="M4420 7773 c-18 -20 -42 -57 -53 -82 -38 -87 -8 -212 69 -281 l28
-25 -27 34 c-53 64 -71 111 -71 181 0 70 19 119 69 179 37 44 24 39 -15 -6z"/>
<path d="M4946 7780 c43 -55 74 -130 74 -180 0 -50 -31 -125 -74 -180 -20 -25
-17 -23 12 8 94 100 95 239 1 342 -22 25 -28 29 -13 10z"/>
<path d="M4522 7671 c-12 -21 -22 -54 -22 -73 0 -36 29 -99 49 -106 6 -2 0 13
-14 33 -33 49 -33 101 0 149 13 20 21 36 17 36 -5 0 -18 -17 -30 -39z"/>
<path d="M4841 7680 c18 -23 24 -45 24 -80 0 -35 -6 -57 -24 -80 -13 -18 -18
-31 -11 -28 21 7 50 70 50 108 0 38 -29 101 -50 108 -7 3 -2 -10 11 -28z"/>
<path d="M4636 7649 c-37 -29 -35 -72 4 -101 28 -20 30 -26 30 -90 0 -61 2
-68 20 -68 18 0 20 7 20 68 0 64 2 70 30 90 56 42 23 122 -50 122 -15 0 -39
-9 -54 -21z"/>
<path d="M4606 7300 c-7 -52 -123 -652 -132 -682 -5 -17 10 -18 215 -18 122 0
221 1 221 3 0 5 -139 700 -145 725 -5 20 -11 22 -79 22 l-73 0 -7 -50z"/>
<path d="M2860 6489 c-151 -136 -279 -247 -285 -245 -5 1 -29 34 -53 72 -23
38 -46 70 -51 72 -7 2 -546 -612 -655 -747 l-30 -36 35 31 c19 17 155 144 303
283 147 138 272 249 276 246 5 -3 26 -37 47 -75 20 -39 40 -69 44 -68 8 3 67
67 408 442 133 147 241 269 240 270 -2 2 -128 -108 -279 -245z"/>
<path d="M4413 6546 c14 -11 17 -28 17 -90 0 -42 -3 -76 -7 -76 -5 0 -69 29
-143 65 -157 76 -145 63 58 -60 372 -225 522 -319 522 -326 0 -4 -27 -33 -60
-65 -33 -32 -57 -61 -53 -64 13 -11 903 -462 903 -457 0 2 -148 98 -330 213
-181 115 -330 213 -330 219 0 5 28 38 62 72 34 34 59 65 56 68 -3 3 -149 75
-324 159 l-319 153 -3 92 -3 91 35 0 c45 0 62 -26 40 -58 -8 -12 -24 -22 -35
-22 -27 0 -25 -6 22 -67 l41 -53 70 0 c60 0 72 3 93 25 44 43 31 80 -35 99
-58 17 -73 41 -42 66 24 20 49 17 69 -7 8 -11 13 -11 19 -2 10 17 -23 39 -58
39 -31 0 -78 -39 -78 -65 0 -22 36 -55 61 -55 71 0 82 -72 12 -86 -24 -5 -36
-1 -52 15 -16 16 -21 17 -21 6 0 -26 -17 -17 -49 26 l-30 42 29 27 c34 31 36
39 17 64 -10 14 -30 19 -93 21 -66 3 -76 2 -61 -9z"/>
<path d="M4770 6549 c0 -5 5 -9 10 -9 6 0 10 -31 10 -72 0 -40 6 -84 13 -97
26 -52 138 -47 158 6 5 13 9 55 9 92 0 37 4 71 9 77 6 5 -1 9 -20 10 -16 1
-29 -3 -29 -7 0 -5 5 -9 10 -9 6 0 10 -33 10 -79 0 -71 -2 -82 -22 -95 -31
-22 -64 -20 -88 4 -16 16 -20 33 -20 87 0 44 5 72 14 82 13 15 11 16 -25 17
-21 1 -39 -2 -39 -7z"/>
<path d="M1496 5765 l-168 -84 -69 -109 -68 -108 -253 -122 -253 -122 -2 -138
c-2 -75 0 -142 5 -148 9 -14 605 -304 624 -304 8 0 55 18 103 41 70 33 89 38
96 28 5 -8 9 -17 9 -20 0 -19 45 -49 74 -49 54 0 96 61 96 139 l0 37 232 112
232 112 26 -25 c55 -52 132 -13 146 74 6 36 9 39 120 94 l114 57 0 146 0 145
-72 33 c-40 19 -162 77 -272 130 -109 53 -200 96 -203 96 -5 0 -190 -171 -345
-319 -26 -25 -50 -42 -54 -38 -8 8 42 71 194 245 64 74 119 139 121 145 2 6
-5 8 -20 3 -13 -3 -47 -13 -75 -20 -28 -8 -158 -75 -289 -150 -131 -75 -242
-135 -247 -134 -5 2 101 66 236 143 135 77 246 142 246 145 0 6 -100 51 -110
49 -3 0 -81 -38 -174 -84z m796 -566 c23 -44 22 -93 -1 -146 -26 -57 -56 -65
-92 -25 -50 56 -45 170 9 213 22 17 28 18 46 6 12 -8 29 -29 38 -48z m-1278
-153 l286 -140 0 -124 c0 -95 -3 -123 -12 -119 -7 2 -140 67 -295 142 l-283
138 0 124 c0 69 4 123 9 121 5 -1 137 -66 295 -142z m615 -165 c58 -58 42
-210 -24 -227 -80 -20 -116 153 -48 228 21 23 48 23 72 -1z"/>
<path d="M775 5080 c-25 -28 -24 -96 3 -122 58 -58 124 49 71 116 -24 31 -49
33 -74 6z"/>
<path d="M1111 4914 c-29 -37 -27 -89 4 -120 20 -20 29 -23 45 -14 44 23 55
105 20 140 -27 27 -44 25 -69 -6z"/>
<path d="M6162 5669 l-163 -80 -70 -107 -69 -107 22 -18 c11 -10 28 -22 37
-27 9 -5 12 -12 8 -16 -4 -5 -27 2 -50 14 -23 12 -48 22 -54 22 -23 0 -163
-74 -163 -86 0 -6 65 -73 145 -149 80 -76 143 -140 140 -143 -3 -3 -72 61
-154 141 -82 81 -152 147 -155 147 -3 0 -69 -32 -146 -70 l-140 -70 0 -145 0
-145 258 -126 c141 -69 283 -137 315 -151 l59 -27 92 46 93 46 16 -33 c19 -40
63 -66 92 -55 45 17 85 89 85 152 0 27 9 33 226 138 124 61 228 110 231 110 3
0 18 -11 35 -25 16 -14 38 -25 48 -25 32 0 76 47 90 95 13 46 14 47 121 101
l109 54 0 146 0 146 -305 149 c-168 82 -313 149 -322 149 -10 0 -39 -8 -66
-17 l-47 -17 -65 32 c-36 18 -71 32 -78 31 -6 0 -85 -37 -175 -80z m759 -519
c64 -35 65 -205 1 -239 -88 -46 -132 187 -45 238 22 13 21 13 44 1z m-1241
-202 l290 -141 0 -124 c0 -67 -2 -123 -4 -123 -2 0 -137 65 -300 144 l-296
145 0 120 c0 72 4 121 10 121 5 0 140 -64 300 -142z m627 -187 c41 -61 23
-178 -32 -203 -22 -10 -28 -8 -49 11 -32 30 -50 104 -37 150 26 88 75 106 118
42z"/>
<path d="M5436 4978 c-48 -69 24 -182 76 -118 38 46 13 140 -37 140 -13 0 -31
-10 -39 -22z"/>
<path d="M5777 4822 c-24 -27 -23 -104 3 -127 29 -26 66 -13 80 30 25 76 -37
148 -83 97z"/>
<path d="M2000 4802 c-16 -13 -24 -32 -27 -68 -6 -61 11 -87 55 -87 42 0 62
19 62 59 0 36 -20 54 -60 54 -34 0 -18 25 19 28 19 2 31 8 28 15 -6 20 -52 19
-77 -1z m55 -102 c0 -33 -32 -40 -44 -8 -11 29 -5 40 22 36 16 -2 22 -10 22
-28z"/>
<path d="M2136 4762 c-20 -33 -36 -65 -36 -71 0 -6 15 -11 34 -11 23 0 38 -7
49 -22 l16 -23 7 23 c3 12 10 22 15 22 5 0 9 7 9 15 0 8 -4 15 -9 15 -6 0 -11
24 -13 52 -4 76 -26 75 -72 0z m41 -49 c-3 -3 -13 -3 -21 -1 -15 3 -15 6 1 28
l18 25 3 -23 c2 -13 1 -26 -1 -29z"/>
<path d="M2273 4803 c-31 -21 -29 -37 2 -29 24 6 25 5 25 -49 0 -48 -2 -55
-20 -55 -11 0 -20 -4 -20 -10 0 -5 23 -10 50 -10 28 0 50 5 50 10 0 6 -7 10
-15 10 -11 0 -15 17 -17 72 -3 79 -14 91 -55 61z"/>
<path d="M2387 4809 c-26 -15 -11 -29 23 -22 27 5 30 3 30 -19 0 -13 -16 -43
-35 -65 -19 -23 -35 -44 -35 -47 0 -3 27 -6 60 -6 33 0 60 4 60 10 0 6 -17 10
-37 10 l-36 0 20 23 c25 27 43 61 43 81 0 37 -54 58 -93 35z"/>
<path d="M2523 4813 c-27 -10 -13 -31 20 -29 41 1 46 -27 5 -32 -16 -2 -28 -9
-28 -17 0 -8 12 -15 28 -17 19 -2 27 -9 27 -23 0 -17 -6 -20 -37 -18 -42 3
-51 -13 -15 -26 56 -21 117 25 90 68 -6 10 -9 29 -6 44 3 15 0 34 -7 42 -12
14 -52 19 -77 8z"/>
<path d="M6697 4612 c-32 -20 -39 -49 -8 -32 30 15 31 14 31 -44 0 -49 -2 -55
-22 -58 -43 -6 -23 -23 30 -26 42 -2 52 0 52 12 0 9 -7 16 -15 16 -12 0 -15
14 -15 69 0 77 -10 89 -53 63z"/>
<path d="M6823 4620 c-34 -14 -28 -30 9 -28 47 4 48 -26 3 -79 -19 -23 -35
-46 -35 -52 0 -7 22 -11 55 -11 42 0 55 3 55 15 0 10 -10 15 -31 15 l-31 0 25
30 c14 16 28 39 32 50 6 20 -10 60 -25 60 -4 0 -14 2 -22 4 -7 3 -23 1 -35 -4z"/>
<path d="M6952 4619 c-34 -13 -27 -32 8 -24 26 6 30 4 30 -14 0 -16 -6 -21
-25 -21 -36 0 -31 -26 6 -34 22 -4 30 -11 27 -23 -3 -14 -12 -17 -41 -16 -26
2 -37 -2 -37 -11 0 -31 78 -36 105 -6 19 21 14 70 -6 70 -8 0 -7 5 1 15 32 38
-16 83 -68 64z"/>
<path d="M6416 4607 c-26 -19 -33 -99 -12 -132 32 -48 106 -22 106 37 0 32
-23 51 -60 51 -19 0 -27 4 -23 14 6 16 47 28 62 18 6 -3 11 1 11 9 0 20 -58
22 -84 3z m52 -76 c20 -12 10 -46 -15 -49 -26 -4 -43 35 -22 49 17 11 21 11
37 0z"/>
<path d="M6540 4575 c0 -42 1 -45 23 -40 28 7 52 -17 43 -41 -5 -13 -15 -15
-42 -11 -29 5 -35 3 -32 -11 2 -13 14 -17 42 -17 31 0 43 6 59 27 19 25 19 28
3 52 -9 14 -27 28 -41 32 -36 9 -32 34 5 34 17 0 30 5 30 10 0 6 -20 10 -45
10 l-45 0 0 -45z"/>
<path d="M2245 3531 l-159 -77 -76 -114 -75 -113 -225 -108 c-124 -59 -237
-115 -253 -123 l-28 -15 3 -143 3 -143 275 -137 c151 -75 294 -144 317 -153
l41 -17 82 41 c82 41 110 49 110 32 0 -5 12 -23 26 -40 41 -49 99 -39 131 22
25 48 34 138 15 160 -24 27 -31 20 -20 -19 14 -52 1 -113 -32 -145 -35 -35
-60 -29 -89 21 -36 65 -22 159 31 200 18 15 17 17 -26 49 -45 31 -58 51 -35
51 6 0 63 -34 126 -75 62 -41 117 -75 122 -75 11 0 95 37 103 46 6 6 -73 111
-250 332 -41 51 -72 95 -69 98 3 3 26 -21 51 -53 25 -32 100 -127 166 -210 66
-84 125 -153 130 -153 6 0 69 29 140 65 121 61 130 64 142 46 23 -32 56 -44
87 -31 30 12 71 75 71 109 0 16 24 33 113 78 l112 58 3 141 c2 106 -1 143 -10
151 -7 5 -148 75 -314 156 l-301 147 -57 -20 -58 -19 -65 29 c-36 17 -73 30
-82 29 -9 0 -88 -36 -176 -78z m774 -528 c26 -23 46 -98 37 -145 -14 -74 -72
-111 -109 -70 -28 31 -41 101 -28 150 13 45 42 82 65 82 8 0 23 -8 35 -17z
m-1249 -193 l279 -135 1 -127 0 -126 -292 142 -293 143 -3 122 c-2 106 -1 122
13 119 8 -2 141 -64 295 -138z"/>
<path d="M1538 2860 c-29 -17 -41 -73 -24 -113 31 -75 101 -48 101 39 0 36 -5
50 -24 65 -26 22 -30 22 -53 9z"/>
<path d="M1861 2687 c-35 -43 -18 -132 27 -144 51 -13 84 81 46 135 -17 25
-56 29 -73 9z"/>
<path d="M6283 3530 l-162 -78 -70 -109 -70 -108 -253 -125 -253 -125 0 -145
0 -145 239 -118 c136 -67 243 -114 248 -109 5 5 -93 59 -227 125 l-235 116 0
126 0 125 103 -51 c56 -29 189 -94 295 -145 l192 -93 0 -50 c0 -48 10 -64 25
-41 9 15 216 170 227 170 4 0 8 -4 8 -9 0 -7 -125 -126 -227 -216 -27 -23 -33
-36 -33 -67 0 -35 -2 -38 -19 -28 -11 5 -27 10 -35 10 -28 0 -17 -17 24 -35
l40 -18 105 49 105 49 0 48 c0 94 47 155 94 123 21 -13 32 -33 50 -90 6 -17 8
-17 24 -3 9 8 119 64 244 125 210 102 229 109 240 93 23 -32 57 -44 87 -31 30
12 71 75 71 109 0 17 23 32 115 78 l115 58 0 143 0 144 -314 153 -315 154 -57
-19 -58 -20 -64 30 c-35 16 -72 30 -81 29 -9 0 -89 -36 -178 -79z m776 -529
c33 -33 47 -95 32 -149 -15 -58 -38 -84 -69 -80 -76 9 -96 186 -28 234 27 19
42 18 65 -5z"/>
<path d="M5573 2855 c-62 -43 -18 -180 46 -146 19 11 39 55 35 79 -1 6 -2 19
-3 27 -1 16 -36 55 -49 55 -4 0 -17 -7 -29 -15z"/>
<path d="M5896 2678 c-35 -49 -9 -138 39 -138 31 0 55 35 55 80 0 45 -24 80
-55 80 -13 0 -31 -10 -39 -22z"/>
<path d="M2790 2653 c-18 -23 -21 -37 -17 -77 5 -52 17 -66 59 -66 34 0 58 24
58 59 0 35 -17 51 -53 51 -39 0 -30 24 11 28 45 5 43 32 -2 32 -26 0 -40 -7
-56 -27z m66 -78 c8 -19 -13 -45 -31 -39 -16 7 -27 32 -19 45 9 15 44 10 50
-6z"/>
<path d="M2910 2665 c0 -11 11 -15 40 -15 l40 0 -30 -60 c-34 -68 -36 -80 -14
-80 17 0 89 144 79 160 -3 6 -31 10 -61 10 -41 0 -54 -4 -54 -15z"/>
<path d="M3073 2668 c-33 -16 -30 -42 3 -34 25 7 25 6 22 -46 -3 -46 -6 -53
-26 -56 -12 -2 -20 -8 -17 -13 8 -12 105 -12 105 1 0 6 -7 10 -15 10 -12 0
-15 15 -15 75 0 81 -6 88 -57 63z"/>
<path d="M3180 2665 c-13 -16 -10 -18 33 -15 39 2 36 -30 -8 -79 -19 -21 -35
-44 -35 -50 0 -13 106 -15 114 -2 7 10 -17 21 -46 21 -18 0 -17 3 11 35 33 38
37 55 21 86 -13 23 -72 26 -90 4z"/>
<path d="M3317 2673 c-17 -16 -6 -33 17 -27 14 3 30 3 36 -1 16 -10 -7 -35
-31 -35 -29 0 -23 -14 11 -27 17 -6 30 -18 30 -27 0 -17 -8 -19 -54 -16 -20 1
-27 -2 -24 -12 7 -19 66 -22 94 -3 25 16 32 49 13 60 -6 4 -7 19 -4 36 4 18 2
36 -5 44 -13 15 -71 21 -83 8z"/>
<path d="M2500 2577 c0 -2 146 -123 325 -268 179 -145 325 -266 325 -270 0 -4
-31 -28 -70 -54 -38 -27 -67 -52 -64 -56 2 -4 91 -67 197 -140 105 -73 257
-179 337 -234 190 -133 300 -207 300 -201 0 2 -127 111 -282 241 -156 131
-291 246 -302 255 -18 17 -16 20 58 76 63 46 75 60 64 70 -7 6 -200 135 -428
284 -228 150 -425 279 -437 287 -13 9 -23 13 -23 10z"/>
<path d="M5800 2320 c-173 -131 -318 -239 -322 -239 -4 -1 -27 37 -51 84 l-42
85 -190 -182 c-432 -415 -589 -571 -525 -522 36 28 187 146 336 262 150 117
274 212 278 212 3 0 23 -36 44 -80 l37 -80 360 331 c375 344 403 369 395 368
-3 0 -147 -108 -320 -239z"/>
<path d="M6450 2499 c-11 -41 -49 -89 -71 -89 -6 0 -24 14 -39 30 -18 20 -31
26 -35 19 -4 -6 5 -24 21 -40 49 -51 107 -32 140 47 8 18 14 43 14 54 0 35
-19 22 -30 -21z"/>
<path d="M7003 2379 c-13 -5 -23 -15 -23 -23 0 -12 5 -14 24 -6 49 18 49 -23
1 -80 -19 -23 -35 -46 -35 -51 0 -5 27 -9 61 -9 44 0 60 3 57 13 -3 6 -19 13
-37 15 l-32 3 31 35 c16 19 30 45 30 58 0 37 -39 59 -77 45z"/>
<path d="M6581 2354 c-42 -54 -18 -144 39 -144 36 0 60 23 60 59 0 35 -17 51
-52 51 -15 0 -28 4 -28 10 0 14 31 28 51 23 13 -4 19 0 19 11 0 28 -65 21 -89
-10z m67 -88 c-2 -13 -10 -21 -23 -21 -23 0 -33 34 -14 45 20 13 40 -1 37 -24z"/>
<path d="M6725 2366 c-26 -19 -34 -116 -10 -139 37 -38 105 -9 105 45 0 32
-16 45 -59 50 -32 3 -34 4 -18 19 10 10 26 15 41 12 19 -4 26 -1 26 11 0 20
-58 22 -85 2z m55 -102 c0 -21 -4 -25 -22 -22 -15 2 -24 11 -26 26 -3 18 1 22
22 22 21 0 26 -5 26 -26z"/>
<path d="M6859 2361 c-28 -22 -20 -38 10 -21 20 10 21 8 21 -45 0 -48 -2 -55
-20 -55 -11 0 -20 -7 -20 -15 0 -11 12 -15 50 -15 38 0 50 4 50 15 0 8 -7 15
-15 15 -12 0 -15 14 -15 70 0 62 -2 70 -19 70 -10 0 -29 -9 -42 -19z"/>
<path d="M7113 2365 c-8 -22 2 -28 24 -17 27 15 51 -1 34 -22 -8 -9 -22 -16
-32 -16 -30 0 -22 -17 11 -23 22 -5 30 -12 30 -28 0 -19 -4 -21 -35 -16 -20 3
-37 1 -41 -5 -17 -28 74 -39 100 -12 18 17 21 50 6 59 -5 3 -7 19 -3 35 3 18
0 36 -7 45 -17 20 -79 20 -87 0z"/>
<path d="M2838 1383 c-48 -54 -62 -138 -33 -193 9 -17 18 -30 21 -30 2 0 -2
13 -11 30 -29 55 -15 139 33 193 8 9 13 17 10 17 -3 0 -12 -8 -20 -17z"/>
<path d="M3604 1320 c20 -31 20 -76 1 -115 l-15 -30 20 24 c27 31 26 91 -1
122 l-21 24 16 -25z"/>
<path d="M3775 1331 c4 -7 11 -36 16 -65 l8 -51 -3 53 c-2 29 -9 59 -16 65
-10 9 -11 9 -5 -2z"/>
<path d="M2959 1293 c-12 -31 -4 -77 16 -93 11 -9 11 -5 -2 20 -12 26 -13 40
-5 66 12 40 6 46 -9 7z"/>
<path d="M3110 1291 c-14 -28 -12 -46 7 -62 15 -13 15 -12 3 8 -11 17 -11 27
-2 47 13 30 8 35 -8 7z"/>
<path d="M3226 1281 c-21 -23 -15 -36 25 -56 25 -13 29 -21 29 -55 0 -57 28
-55 32 2 2 35 8 45 31 56 28 14 35 40 15 60 -20 20 -112 15 -132 -7z"/>
<path d="M3466 1287 c3 -10 9 -15 12 -12 3 3 0 11 -7 18 -10 9 -11 8 -5 -6z"/>
<path d="M3467 1241 c-4 -17 -3 -21 5 -13 5 5 8 16 6 23 -3 8 -7 3 -11 -10z"/>
<path d="M3760 1170 c-6 -11 -8 -20 -6 -20 3 0 10 9 16 20 6 11 8 20 6 20 -3
0 -10 -9 -16 -20z"/>
<path d="M3185 983 c-20 -65 -53 -172 -74 -238 l-38 -120 215 -3 c118 -1 216
-1 218 1 3 3 -133 454 -141 468 -4 5 -37 9 -75 9 l-69 0 -36 -117z"/>
<path d="M3793 559 c14 -8 17 -25 17 -99 0 -62 -4 -90 -12 -93 -7 -2 4 -6 25
-9 21 -2 40 0 43 4 3 4 -2 8 -10 8 -12 0 -16 11 -16 45 0 45 0 45 34 45 24 0
36 -5 39 -17 3 -10 5 0 6 22 0 32 -2 36 -10 23 -6 -11 -22 -18 -39 -18 -28 0
-30 2 -30 40 0 31 4 40 18 42 33 3 56 -3 64 -15 5 -8 8 -4 8 11 0 21 -4 22
-77 22 -58 -1 -73 -3 -60 -11z"/>
<path d="M3986 479 c-50 -39 -23 -129 38 -129 39 0 57 11 71 43 32 77 -44 137
-109 86z m69 -5 c11 -12 15 -30 13 -63 -3 -40 -6 -46 -27 -49 -32 -5 -51 21
-51 68 0 55 32 77 65 44z"/>
<path d="M4178 493 c-21 -5 -33 -45 -22 -70 12 -28 10 -72 -3 -78 -18 -6 -16
-40 3 -59 37 -38 134 -2 134 49 0 30 -13 38 -70 45 l-45 6 30 13 c41 17 65 40
65 63 0 10 8 19 18 19 24 2 -37 17 -68 17 -14 0 -33 -2 -42 -5z m50 -15 c26
-26 2 -75 -31 -62 -22 8 -31 42 -17 59 15 18 32 19 48 3z m39 -143 c8 -23 -26
-55 -58 -55 -35 0 -57 33 -38 56 16 19 88 19 96 -1z"/>
<path d="M4416 487 c-27 -20 -17 -58 19 -70 45 -14 58 -27 44 -43 -16 -20 -56
-17 -68 4 -9 15 -10 15 -11 -5 0 -20 5 -23 38 -23 27 0 45 7 58 21 23 26 10
50 -37 65 -37 13 -50 40 -23 51 9 3 25 1 36 -6 11 -7 23 -10 26 -6 9 9 -19 25
-44 25 -11 0 -28 -6 -38 -13z"/>
<path d="M4561 487 c-46 -23 -47 -103 -2 -127 22 -11 170 -2 151 10 -6 4 -10
26 -8 51 3 39 6 44 27 44 14 0 26 6 28 12 6 18 -16 26 -33 12 -9 -8 -18 -9
-22 -3 -10 14 -114 15 -141 1z m53 -3 c9 -3 16 -15 16 -25 0 -15 -7 -19 -34
-19 -41 0 -52 12 -30 34 17 18 24 19 48 10z m56 -59 l0 -55 -44 0 c-35 0 -48
5 -60 22 -24 34 -20 38 39 38 52 0 55 1 55 25 0 14 2 25 5 25 3 0 5 -25 5 -55z"/>
<path d="M4786 492 c6 -4 24 -35 39 -69 15 -35 31 -63 36 -63 4 0 20 27 35 60
15 34 34 65 43 70 12 7 7 9 -19 10 -23 0 -30 -3 -21 -9 11 -7 9 -17 -9 -57
l-22 -49 -19 49 c-16 39 -17 51 -7 57 8 6 -2 9 -27 9 -22 0 -35 -4 -29 -8z"/>
<path d="M4986 479 c-51 -40 -23 -129 42 -129 15 0 34 5 42 10 11 7 6 10 -22
10 -27 0 -40 6 -48 19 -18 34 -12 41 40 41 46 0 50 2 50 25 0 45 -59 59 -104
24z m73 -8 c13 -24 5 -31 -36 -31 -34 0 -43 16 -21 38 18 18 46 15 57 -7z"/>
<path d="M5120 489 c-14 -4 -19 -7 -12 -8 10 -1 13 -16 10 -61 l-3 -60 35 1
c19 1 27 3 17 6 -15 4 -17 13 -15 51 3 44 5 47 31 45 21 -1 27 3 27 18 0 22
-20 25 -38 7 -9 -9 -15 -10 -20 -2 -4 6 -17 7 -32 3z"/>
</g>
</svg>
